<svg xmlns="http://www.w3.org/2000/svg" viewBox="0 0 32 32"><g fill="none" fill-rule="evenodd"><circle cx="16" cy="16" r="16" fill="#C3A634"/><path fill="#FFF" d="M13.248 14.61h4.314v2.286h-4.314v4.818h2.721c1.077 0 1.958-.145 2.644-.437.686-.291 1.224-.694 1.615-1.21a4.4 4.4 0 00.796-1.815 11.4 11.4 0 00.21-2.252 11.4 11.4 0 00-.21-2.252 4.396 4.396 0 00-.796-1.815c-.391-.516-.93-.919-1.615-1.21-.686-.292-1.567-.437-2.644-.437h-2.721v4.325zm-2.766 2.286h-1.506v-2.285h1.506V9h5.488c1.43 0 2.64.188 3.633.563.992.375 1.798.885 2.418 1.532.62.646 1.062 1.397 1.327 2.252.264.855.397 1.772.397 2.752 0 .98-.133 1.897-.397 2.752-.265.855-.708 1.606-1.327 2.253-.62.646-1.426 1.157-2.418 1.532-.992.375-2.203.562-3.633.562h-5.488v-5.302z"/></g></svg> 